# xmcd CD database file
#
# Track frame offsets:
#	178
#	13965
#	28528
#	46968
#	63065
#	79880
#	91523
#	108710
#	125830
#	140715
#	159078
#	172638
#	193328
#
# Disc length: 2871 seconds
#
# Revision: 0
# Processed by: cddbd v1.5.1PL0 Copyright (c) Steve Scherf et al.
# Submitted via: CDex 1.51
#
DISCID=a50b350d
DTITLE=Nini Rosso - Nini Rosso Digital Best
DYEAR=1900
DGENRE=Jazz
TTITLE0=Il Silenzio
TTITLE1=Ballata Della Tromba
TTITLE2=Dequielo from "Rio Bravo"
TTITLE3=Wonderland By Night
TTITLE4=Gelsomina
TTITLE5=Midnight Blues
TTITLE6=Wednesday Night
TTITLE7=Ä£±¸¿©
TTITLE8=Concerto Disperato from "Marica O Crapa"
TTITLE9=Soleado
TTITLE10=Quel Vagabondo
TTITLE11=What  A Wonderful World
TTITLE12=En Aranjuez Cou Tu Amor
EXTD=
EXTT0=
EXTT1=
EXTT2=
EXTT3=
EXTT4=
EXTT5=
EXTT6=
EXTT7=
EXTT8=
EXTT9=
EXTT10=
EXTT11=
EXTT12=
PLAYORDER=
